<svg xmlns="http://www.w3.org/2000/svg" width="168" height="56" viewBox="0 0 168 56">
    <defs>
        <linearGradient id="q9aeoct31a" x1="99.299%" x2="4.514%" y1="21.741%" y2="76.074%">
            <stop offset=".034%" stop-color="#E1001D"/>
            <stop offset="100%" stop-color="#A00104"/>
        </linearGradient>
    </defs>
    <g fill="none" fill-rule="evenodd">
        <g>
            <g>
                <g>
                    <path fill="#FFF" d="M86.686 10.815L81.121 10.815 73.771 24.36 73.666 24.36 71.566 10.815 66.106 10.815 69.466 30.66 75.346 30.66zM116.821 30.66L121.756 30.66 125.956 9.975 120.916 9.975zM149.896 29.61c1.47.63 3.57 1.575 6.615 1.26 5.145-.525 7.77-1.995 8.19-5.67.525-4.83-7.455-3.15-7.56-5.46 0-1.05 1.68-1.47 2.835-1.47 1.785 0 3.57.945 5.145 1.785l.735-3.885c-1.89-.63-4.725-.945-5.985-.945-3.78 0-7.98 2.1-7.98 5.565 0 5.04 7.56 3.36 7.56 5.46 0 1.26-1.89 1.47-2.73 1.47-1.47 0-3.885-.525-5.88-2.205l-.945 4.095zM110.836 10.815L105.376 10.815 97.921 24.36 97.816 24.36 95.716 10.815 90.256 10.815 93.616 30.66 99.496 30.66zM125.221 30.66L130.261 30.66 134.356 9.975 129.316 9.975z" transform="translate(-76 -40) translate(76 40) translate(1.514)"/>
                    <path fill="#FFF" fill-rule="nonzero" d="M142.441 30.66h5.25c.525-4.41 1.68-7.98 1.89-10.29.315-3.255-1.785-5.04-6.615-5.04-2.415 0-4.305.315-6.51.63l-.525 3.675c1.785-.84 3.885-1.155 5.775-1.155 1.785 0 2.73.735 2.73 1.785 0 .21 0 .42-.105.63-.735-.105-1.68.105-2.73.105-4.62.21-8.19 2.1-8.505 5.67-.21 2.94 1.26 4.305 4.515 4.305 1.995 0 3.255-.735 4.935-1.89v.315l-.105 1.26zm-4.2-3.99c-.21-1.68 1.155-2.835 3.99-2.94.315 0 .945-.105 1.575-.105-.21 1.68-.525 3.15-.525 3.15-.84.63-1.785.945-2.835 1.05-1.05.105-2.1-.21-2.205-1.155zM45.526 30.66h5.355l2.205-4.2h6.93l.42 4.2h5.46l-3.36-19.845h-5.775L45.526 30.66zm13.965-7.77h-4.515l3.57-6.615.945 6.615zM108.316 30.66h5.04l2.94-14.91h-5.04l-2.94 14.91zm3.36-17.115h5.355l.735-3.57h-5.355l-.735 3.57z" transform="translate(-76 -40) translate(76 40) translate(1.514)"/>
                    <g fill="#FFF">
                        <path fill-rule="nonzero" d="M8.505 1.26c.84 0 1.575.105 2.205.42.63.315 1.155.63 1.575 1.05.42.42.735.945.945 1.575.21.63.315 1.26.315 1.89 0 .945-.21 1.785-.525 2.73-.315.84-.84 1.68-1.575 2.31-.63.735-1.47 1.26-2.52 1.68-.945.42-2.1.63-3.36.63H.84L3.57 1.26h4.935zm-2.31 10.395c.735 0 1.47-.105 2.1-.42.63-.315 1.155-.63 1.68-1.155.42-.525.84-1.05 1.05-1.68.21-.63.42-1.26.42-1.89 0-.42-.105-.945-.21-1.365-.105-.42-.315-.735-.525-1.05-.315-.315-.63-.525-1.05-.735-.42-.21-.945-.315-1.575-.315h-2.52l-1.89 8.61h2.52zM16.275 13.545H14.28l1.89-8.505h1.995l-1.89 8.505zm.21-10.92c0-.21 0-.42.105-.63.105-.21.21-.315.315-.42.105-.105.315-.21.525-.21.21-.105.315-.105.525-.105.21 0 .525.105.735.21.21.105.315.42.315.63 0 .21 0 .42-.105.63-.105.21-.21.315-.315.42-.105.105-.315.21-.525.315-.21.105-.315.105-.525.105-.21 0-.525-.105-.735-.21-.21-.105-.315-.42-.315-.735zM18.795 15.645c.525.315 1.155.525 1.785.735.63.21 1.26.21 1.89.105.63-.105 1.155-.315 1.68-.735.525-.42.84-1.05 1.05-1.89l.42-1.68c-.42.525-.84.945-1.47 1.155-.63.21-1.155.42-1.89.42-.525 0-.945-.105-1.365-.315-.42-.21-.84-.42-1.05-.84-.315-.315-.525-.84-.63-1.365-.105-.525-.105-1.26.105-1.995.21-.735.42-1.47.84-1.995.42-.525.84-1.05 1.365-1.365.525-.315 1.155-.63 1.785-.735.63-.21 1.365-.21 1.995-.21.63 0 1.26.105 1.785.21.63.105 1.155.315 1.68.63l-1.785 8.085c-.21 1.155-.735 1.995-1.365 2.73-.63.63-1.365 1.155-2.205 1.365-.84.21-1.68.315-2.625.21-.945-.105-1.785-.42-2.52-.84l.525-1.68zM26.67 6.93c-.525-.21-1.155-.42-1.785-.42-.42 0-.735.105-1.155.21-.42.105-.735.315-1.05.525-.315.21-.63.525-.84.84-.21.315-.42.735-.525 1.26-.105.42-.105.735-.105 1.155 0 .315.105.63.21.84.105.21.315.42.525.525.21.105.525.21.945.21.42 0 .735-.105 1.155-.21l.945-.63c.315-.315.525-.525.735-.84.21-.315.315-.63.42-.945l.525-2.52zM31.71 13.545h-1.995l1.89-8.505H33.6l-1.89 8.505zm.21-10.92c0-.21 0-.42.105-.63.105-.21.21-.315.315-.42.105-.105.315-.21.525-.21.21-.105.315-.105.525-.105.21 0 .525.105.735.21.21.105.315.42.315.63 0 .21 0 .42-.105.63-.105.21-.21.315-.315.42-.105.105-.315.21-.525.315-.21.105-.315.105-.525.105-.21 0-.525-.105-.735-.21-.21-.105-.315-.42-.315-.735z" transform="translate(-76 -40) translate(76 40) translate(1.514) translate(105.586 35.7)"/>
                        <path d="M39.06 5.04h3.045l-.315 1.365h-3.15l-.84 3.78c-.21.735-.105 1.26.105 1.575.21.315.63.42 1.155.42.42 0 1.05-.105 1.575-.315l-.105 1.47c-.84.21-1.68.42-2.31.42-.42 0-.84-.105-1.26-.21-.42-.105-.63-.315-.84-.63-.21-.315-.315-.63-.42-1.05-.105-.42 0-.945.105-1.575l.84-3.78-1.785-.105.315-1.26h1.785l.735-2.625h1.785l-.42 2.52z" transform="translate(-76 -40) translate(76 40) translate(1.514) translate(105.586 35.7)"/>
                        <path fill-rule="nonzero" d="M50.925 11.025c0 .21-.105.42-.105.525v.42c0 .105.105.21.21.21s.315.105.525 0l-.315 1.26c-.315.105-.63.105-.945.105-.315 0-.525-.105-.84-.21-.21-.105-.42-.315-.42-.525-.105-.21-.105-.63 0-1.05-.42.63-.945 1.05-1.575 1.365-.63.315-1.26.525-1.995.525-.63 0-1.155-.105-1.68-.315-.42-.21-.84-.525-1.05-.945-.21-.42-.42-.945-.42-1.47-.105-.525 0-1.155.105-1.68.21-.735.42-1.365.84-1.89.315-.525.84-.945 1.365-1.365.525-.315 1.05-.63 1.785-.84.63-.21 1.365-.315 2.1-.21.63 0 1.26.105 1.89.21.63.105 1.155.315 1.68.63l-1.155 5.25zm-1.05-4.2l-.945-.315c-.315-.105-.63-.105-.945-.105-.84 0-1.575.21-2.205.735-.63.42-1.05 1.155-1.26 2.1-.105.42-.105.735-.105 1.05 0 .315.105.63.21.84.105.21.315.42.525.63.21.21.525.21.945.21.42 0 .735-.105 1.05-.21.315-.105.63-.315.945-.525.315-.21.525-.525.735-.84.21-.315.315-.735.42-1.05l.63-2.52z" transform="translate(-76 -40) translate(76 40) translate(1.514) translate(105.586 35.7)"/>
                        <path d="M58.065.63L55.86 10.5c-.105.63-.105 1.05 0 1.26.105.21.42.315.84.315h.315c.105 0 .315 0 .42-.105l-.315 1.47c-.21 0-.42.105-.63.105h-.63c-.945 0-1.68-.21-1.995-.735-.315-.525-.42-1.26-.105-2.52L55.965.42h2.1v.21z" transform="translate(-76 -40) translate(76 40) translate(1.514) translate(105.586 35.7)"/>
                    </g>
                    <g>
                        <path fill="url(#q9aeoct31a)" d="M32.818 8.642c-.963 2.85-1.255 4.18 0 2.568C40.025 1.524 47.953 0 47.953 0c-5.251 2.286-8.854 5.986-8.854 5.986.926.87 1.544 1.85 2.162 2.939 3.706 7.51-1.236 17.85-13.179 24.053-10.5 5.442-23.164 4.136-26.87-3.374-3.707-7.51 1.235-17.523 12.869-23.836 7.618-4.135 16.164-4.57 21.826-1.85-1.587 1.602-2.336 2.497-3.089 4.724z" transform="translate(-76 -40) translate(76 40) translate(1.514)"/>
                        <path fill="#FFF" d="M35.907 3.918c-7.722 4.898-11.53 15.129-11.53 15.129-4.943-7.619-16.474-5.878-16.474-5.878C25.612 16 24.376 30.257 24.376 30.257 25.92 22.42 31.48 13.06 32.818 11.21 40.025 1.524 47.953 0 47.953 0c-5.869 0-12.046 3.918-12.046 3.918m-15.65 18.067S9.552 20.135 9.552 24.38c0 1.741 1.75 4.027 7.515 4.897 1.03.218 4.53.653 6.795-.87 0 0-1.338 3.047-7.927 2.503-1.133-.109-7.825-.653-10.193-5.224-.617-1.198-.72-4.68 4.221-5.551 2.78-.435 7.722-.109 10.296 1.85" transform="translate(-76 -40) translate(76 40) translate(1.514)"/>
                    </g>
                </g>
            </g>
        </g>
    </g>
</svg>
