<svg width="44" height="43" viewBox="0 0 44 43" fill="none" xmlns="http://www.w3.org/2000/svg">
<mask id="mask0" mask-type="alpha" maskUnits="userSpaceOnUse" x="0" y="0" width="44" height="43">
<rect width="44" height="43" fill="#C4C4C4"/>
</mask>
<g mask="url(#mask0)">
<path d="M-1 3.28583L8.85714 -5.47607M-1 7.66678L13.2381 -5.47607M-1 12.0477L18.1667 -5.47607M-1 15.8811L22.5476 -5.47607M-1 19.7144C-0.561905 19.7144 17.619 3.28583 26.9286 -5.47607M-1 25.1906C-0.561905 25.1906 21.0873 4.74615 31.8571 -5.47607" stroke="#F3F2F6"/>
<path d="M-1 29.5715L36.7857 -5.47607M-1 33.9525L40.619 -4.38084M-0.452381 38.3334L43.3571 -2.19036M0.642857 42.1668L45 1.64297M3.38095 44.9049L45 6.57154M7.7619 46.0001L45 12.0477M13.2381 46.0001L45 16.9763M19.2619 46.0001L45 21.9049M25.2857 46.0001L45 27.3811M30.7619 46.0001L45 32.8573M36.2381 46.0001L45 37.7858" stroke="#F3F2F6"/>
</g>
</svg>
