<svg width="200" height="61" viewBox="0 0 200 61" fill="none" xmlns="http://www.w3.org/2000/svg">
<path d="M129.669 47.1288V60.8549H131.831V47.1288H129.669ZM167.394 47.1288V60.8549H178.479V58.8526H169.555V54.5583H177.326V52.7009H169.555V48.9862H178.187V47.1288H167.394ZM75.9663 47.1288V60.8549H78.1277V47.1288H75.9663ZM111.662 60.868H121.74V59.0107H113.824V47.142H111.662V60.868ZM95.1137 54.8613C93.5358 54.8613 91.9446 54.4266 90.9368 53.8601V48.7096H96.559C99.2906 48.7096 100.298 50.1454 100.298 51.4232C100.298 53.2805 98.853 54.8613 95.1137 54.8613ZM61.7118 55.4277H55.3735L58.5427 48.9862L61.7118 55.4277ZM144.494 60.868V49.5658L154.001 60.2884C154.293 60.7231 154.717 60.8549 155.301 60.8549H156.6V47.1288H154.585V57.9964L145.223 47.6953C144.931 47.2606 144.653 47.1288 143.924 47.1288H142.478V60.8549H144.494V60.868ZM90.9368 60.868V55.8624C91.9446 56.4288 93.3899 56.7186 94.9678 56.7186C95.8297 56.7186 96.4132 56.7186 97.1292 56.5737L100.007 60.868H102.314L99.1447 56.0073C101.16 55.1511 102.46 53.4386 102.46 51.4363C102.46 48.8677 100.298 46.9971 96.4132 46.9971H88.7754V60.868H90.9368ZM64.2975 60.868H66.4589L59.9747 47.7085C59.683 47.2738 59.4046 47.142 58.967 47.142H57.3891L50.6265 60.868H52.7746L54.4984 57.2982H62.5604L64.2975 60.868ZM194.312 46.8391C190.572 46.8391 188.119 48.4198 188.119 50.8436C188.119 53.1356 189.989 53.9919 193.012 54.5583L194.457 54.8481C196.619 55.2828 197.772 55.9941 197.772 57.1401C197.772 58.2862 196.619 59.1424 193.741 59.1424C191.156 59.1424 189.127 58.2862 188.557 57.8515L187.987 59.8537C188.557 60.1435 190.572 60.9998 193.596 60.9998C197.627 60.9998 199.934 59.4322 199.934 56.9952C199.934 54.7032 197.918 53.5571 194.749 52.9907L193.304 52.7009C190.997 52.2662 190.281 51.8447 190.281 50.6987C190.281 49.5526 191.58 48.6964 194.166 48.6964C196.327 48.6964 197.905 49.1311 198.634 49.4077L199.072 47.6953C198.197 47.4187 196.619 46.8391 194.312 46.8391Z" fill="#1B0088"/>
<path d="M114.155 32.1383H120.228V15.3299L130.836 14.6317V10.2979H103.547V14.6317L114.155 15.3299V32.1383ZM70.3176 32.1383L72.8104 27.1063H58.0786V10.2979H51.7668V32.1383H70.3176ZM93.7877 23.6946H85.6063L89.7434 14.9479L93.7877 23.6946ZM148.697 23.6946H140.503L144.64 14.9479L148.697 23.6946ZM176.45 26.8034C176.689 27.5805 177.617 28.1206 178.638 28.1206H184.95L189.631 15.264L194.073 32.1515H200L195.094 12.7876C194.63 10.8512 193.529 10.3111 191.739 10.3111H185.573L181.131 23.0886L177.617 12.2343C177.153 10.8512 176.291 10.2979 174.886 10.2979H167.951L162.262 32.1383H168.269L172.632 15.2509L176.45 26.8034ZM152.821 32.1383H159.451L149.002 11.681C148.459 10.6799 147.915 10.2847 146.668 10.2847H140.9L129.895 32.1383H136.604L138.553 28.1075H150.872L152.821 32.1383ZM97.8453 32.1383H104.555L94.1059 11.6942C93.5623 10.6931 93.0186 10.2979 91.7589 10.2979H85.9908L74.9983 32.1383H81.6946L83.6438 28.1075H95.9623L97.8453 32.1383Z" fill="#1B0088"/>
<path d="M8.96388 54.3216L14.3474 52.372C15.4745 51.9636 15.4745 52.8594 15.4745 54.203V56.6663C15.4745 58.6554 14.7983 58.8925 13.9098 59.2218L8.97714 61.0001V54.3216H8.96388Z" fill="#1B0088"/>
<path d="M8.96388 43.4145L22.6482 38.4615C23.7753 38.0532 23.7753 38.9489 23.7753 40.2925V42.7427C23.7753 44.7449 23.099 44.982 22.2106 45.3114L8.97714 50.0931V43.4145H8.96388Z" fill="#1B0088"/>
<path d="M7.84991 27.8574L0.901678 25.3414C0 25.0253 0 23.8134 0 23.3655C0 23.3655 0 24.8277 1.33926 24.3403L35.4174 12.0238C38.1092 11.049 38.1092 10.2981 36.9821 9.88977C38.1092 10.2981 38.1092 10.2981 38.1092 13.565C38.1092 16.6869 38.1092 17.7276 36.7699 18.2149L10.0908 27.8574C8.96374 28.2658 8.96374 28.2658 7.84991 27.8574Z" fill="#1B0088"/>
<path d="M36.9955 20.7965C38.1226 21.2049 38.1226 21.9557 35.4308 22.9305L8.96388 32.4939V39.1725L36.77 29.1217C38.1093 28.6343 38.1093 27.5937 38.1093 24.4717C38.1093 21.2049 38.1093 21.2049 36.9955 20.7965Z" fill="#1B0088"/>
<path d="M2.91719 15.1586L14.8247 19.4661L24.0669 16.1202L1.7901 8.0717C0.22542 7.50527 0 7.42623 0 8.54592V11.4439C0 14.1048 2.01552 14.8425 2.91719 15.1586Z" fill="#ED1650"/>
<path d="M36.9955 20.7969L33.296 19.4665L24.0538 22.8124L29.9014 24.9332L35.4176 22.9441C38.1093 21.9561 38.1093 21.2053 36.9955 20.7969Z" fill="#ED1650"/>
<path d="M36.9955 9.88964C36.9955 9.88964 12.3319 0.971692 10.7672 0.405264C9.18929 -0.161164 8.96388 -0.240201 8.96388 0.86631V3.76431C8.96388 6.43838 10.9794 7.16288 11.8811 7.4922L29.9146 14.0127L35.4308 12.0236C38.1093 11.0488 38.1093 10.298 36.9955 9.88964Z" fill="#ED1650"/>
<path d="M1.33926 24.3404L8.96374 21.5873L1.7901 18.9923C0.22542 18.4258 0 18.3336 0 19.4533V23.3656C0 23.3656 0 24.8278 1.33926 24.3404Z" fill="#ED1650"/>
</svg>
