<svg width="48" height="48" viewBox="0 0 48 48" fill="none" xmlns="http://www.w3.org/2000/svg">
<path d="M24.0001 40C15.1797 40 8.00012 32.8205 8.00012 24C8.00012 15.1746 15.1797 8 24.0001 8C32.8206 8 40.0001 15.1796 40.0001 24C40.0001 32.8205 32.8255 40 24.0001 40ZM24.0001 9.11857C15.7956 9.11857 9.1187 15.7955 9.1187 24.0049C9.1187 32.2094 15.7956 38.8864 24.0001 38.8864C32.2046 38.8864 38.8816 32.2094 38.8816 24.0049C38.8865 15.7906 32.2096 9.11857 24.0001 9.11857Z" fill="white"/>
<path fill-rule="evenodd" clip-rule="evenodd" d="M28.0014 24.0118H25.3848V33.3447H21.5067V24.0118H19.6638V20.7152H21.5067V18.5815C21.5067 17.054 22.2311 14.6641 25.4242 14.6641L28.3019 14.6739V17.8769H26.2126C25.8726 17.8769 25.3897 18.0444 25.3897 18.7737V20.7103H28.3463L28.0014 24.0118Z" fill="white"/>
</svg>
