<svg width="48" height="48" viewBox="0 0 48 48" fill="none" xmlns="http://www.w3.org/2000/svg">
<path d="M24 40C15.1796 40 8 32.8205 8 24C8 15.1746 15.1796 8 24 8C32.8205 8 40 15.1796 40 24C40 32.8205 32.8205 40 24 40ZM24 9.11857C15.7955 9.11857 9.11857 15.7955 9.11857 24.0049C9.11857 32.2094 15.7955 38.8864 24 38.8864C32.2045 38.8864 38.8814 32.2094 38.8814 24.0049C38.8814 15.7906 32.2045 9.11857 24 9.11857Z" fill="white"/>
<path d="M18.8072 16.7938L18.8062 16.7942C18.349 16.9713 17.9712 17.2022 17.5874 17.586C17.2035 17.9699 16.9726 18.3477 16.7955 18.8049L16.7951 18.8058C16.6208 19.2543 16.4923 19.7788 16.4561 20.5924L18.8072 16.7938ZM18.8072 16.7938C19.2557 16.6194 19.7802 16.4909 20.5939 16.4548C21.4643 16.4161 21.7372 16.4062 24.0001 16.4062C26.2629 16.4062 26.5358 16.4161 27.4063 16.4548C28.2199 16.4909 28.7445 16.6194 29.193 16.7938L29.1939 16.7942C29.6511 16.9713 30.0289 17.2022 30.4128 17.586C30.7966 17.9699 31.0275 18.3477 31.2046 18.8049L31.205 18.8058C31.3794 19.2543 31.5078 19.7789 31.544 20.5925C31.5827 21.463 31.5925 21.7359 31.5925 23.9987C31.5925 26.2613 31.5827 26.5295 31.544 27.4049C31.5078 28.2186 31.3794 28.7432 31.205 29.1916L31.2046 29.1926C31.0275 29.6498 30.7966 30.0275 30.4128 30.4114C30.0289 30.7953 29.6511 31.0262 29.1939 31.2033L29.193 31.2037C28.7445 31.3781 28.2199 31.5065 27.4063 31.5427C26.5358 31.5814 26.2629 31.5912 24.0001 31.5912C21.7375 31.5912 21.4693 31.5814 20.5939 31.5427C19.7802 31.5065 19.2556 31.3781 18.8072 31.2037L18.8062 31.2033C18.349 31.0262 17.9712 30.7953 17.5874 30.4114C17.2035 30.0275 16.9726 29.6498 16.7955 29.1925L16.7951 29.1916M18.8072 16.7938L16.7951 29.1916M16.7951 29.1916C16.6207 28.7432 16.4923 28.2186 16.4561 27.4049C16.4174 26.5344 16.4076 26.2616 16.4076 23.9987C16.4076 21.7362 16.4174 21.4679 16.4561 20.5925L16.7951 29.1916Z" stroke="white" stroke-width="1.5"/>
<path d="M24.0002 19.7188C21.6349 19.7188 19.7131 21.6356 19.7131 24.0058C19.7131 26.376 21.63 28.2928 24.0002 28.2928C26.3704 28.2928 28.2872 26.376 28.2872 24.0058C28.2872 21.6356 26.3654 19.7188 24.0002 19.7188ZM24.0002 26.7899C22.4628 26.7899 21.2161 25.5432 21.2161 24.0058C21.2161 22.4684 22.4628 21.2217 24.0002 21.2217C25.5376 21.2217 26.7843 22.4684 26.7843 24.0058C26.7843 25.5432 25.5376 26.7899 24.0002 26.7899Z" fill="white"/>
<path d="M28.4547 20.5475C29.0071 20.5475 29.455 20.0997 29.455 19.5472C29.455 18.9947 29.0071 18.5469 28.4547 18.5469C27.9022 18.5469 27.4543 18.9947 27.4543 19.5472C27.4543 20.0997 27.9022 20.5475 28.4547 20.5475Z" fill="white"/>
</svg>
