<svg width="88" height="20" viewBox="0 0 88 20" fill="none" xmlns="http://www.w3.org/2000/svg">
  <g clip-path="url(#clip0)">
  <path d="M87.9998 3.7687C87.9998 3.57525 87.8253 3.40137 87.6313 3.40137H86.3973C86.1836 3.40137 86.0288 3.57525 86.0288 3.7687V15.8689C86.0288 16.0624 86.2032 16.2363 86.3973 16.2363H87.6313C87.845 16.2363 87.9998 16.0624 87.9998 15.8689V3.7687Z" fill="#210049"/>
  <path d="M37.3217 3.40771H36.1291C35.9198 3.40771 35.7672 3.5816 35.7672 3.77722L35.7606 12.2693L27.6565 3.58377C27.6565 3.58377 27.5279 3.40989 27.2968 3.40989C27.081 3.40989 26.8826 3.40771 26.8826 3.40771C26.6929 3.40771 26.5206 3.56204 26.5206 3.75766V15.3493V15.8644C26.5206 16.0579 26.6842 16.2339 26.8738 16.2339H28.0861C28.2954 16.2339 28.448 16.0579 28.448 15.8644L28.4349 7.15929L36.7941 16.0796C36.7941 16.0796 36.9554 16.2339 37.0513 16.2339H37.3108C37.5005 16.2339 37.6727 16.0796 37.6727 15.884L37.6814 15.6666V3.77505C37.6836 3.5816 37.5114 3.40771 37.3217 3.40771Z" fill="#210049"/>
  <path d="M49.0777 16.2296H49.5879C49.8015 16.2296 49.9563 16.0557 49.9563 15.8644V14.7689C49.9563 14.5777 49.8015 14.4038 49.5879 14.4038H46.2455L46.2433 14.406H44.7891V10.4218H45.0638H49.5922C49.8059 10.4218 49.9607 10.2479 49.9607 10.0566V8.96117C49.9607 8.7699 49.8059 8.59601 49.5922 8.59601H49.4069H44.7891V5.23351H49.5857C49.7993 5.23351 49.9541 5.05962 49.9541 4.86835V3.77287C49.9541 3.5816 49.7993 3.40771 49.5857 3.40771H46.239H43.2018C42.9882 3.40771 42.8334 3.5816 42.8334 3.77287V15.8666C42.8334 16.0557 42.986 16.2274 43.1953 16.2317L49.0777 16.2296Z" fill="#210049"/>
  <path d="M80.8856 3.76635C80.8856 3.57725 80.7155 3.40771 80.5258 3.40771H79.3158C79.1065 3.40771 78.956 3.57725 78.956 3.76635L78.9626 10.9761C78.9626 12.0911 78.8666 12.6215 78.5636 13.1496C78.1079 13.9256 77.1966 14.4342 76.2089 14.4342C75.2038 14.4342 74.2903 13.9234 73.8346 13.1496C73.5315 12.6193 73.4356 12.0911 73.4356 10.9761L73.4421 3.76635C73.4421 3.57725 73.2721 3.40771 73.0824 3.40771H71.8745C71.6652 3.40771 71.5148 3.57725 71.5148 3.76635L71.5213 11.4869C71.5213 12.7149 71.8244 13.6235 72.4894 14.4538C73.3811 15.5688 74.7656 16.2317 76.2089 16.2317C77.6326 16.2317 79.0171 15.5688 79.9088 14.4538C80.5738 13.6213 80.8769 12.6954 80.8769 11.4869L80.8856 3.76635Z" fill="#210049"/>
  <path d="M65.4385 14.2169L65.4406 14.2147C66.6659 12.9366 67.2045 11.6607 67.2045 9.97623C67.2045 6.33116 64.3243 3.40771 60.7203 3.40771C57.1338 3.40771 54.2537 6.29421 54.2537 9.86538C54.2537 11.4564 54.7747 12.9192 55.7951 14.0299C57.04 15.4188 58.8802 16.2317 60.7007 16.2317C61.8977 16.2317 63.1143 15.8862 64.1303 15.2471L64.9043 16.01C65.0264 16.1296 65.2662 16.2274 65.4385 16.2296L66.7226 16.2317C67.1412 16.2317 67.2394 15.9927 66.9428 15.7014L65.4385 14.2169ZM60.6288 14.4733C59.495 14.4733 58.3438 13.993 57.4696 13.1605C56.5778 12.3085 56.1309 11.2347 56.1309 9.88494C56.1309 7.16581 58.0626 5.16613 60.7007 5.16613C63.3214 5.16613 65.3273 7.20276 65.3273 9.84799C65.3273 11.1239 64.974 12.0129 64.139 12.9018L64.1172 12.9192L62.5125 11.3391C62.3904 11.2195 62.1506 11.1217 61.9784 11.1195H61.019C60.6222 11.1195 60.4238 11.5999 60.7051 11.8781L62.8003 13.9386C62.192 14.2755 61.3744 14.4733 60.6288 14.4733Z" fill="#210049"/>
  <path d="M10.7529 0.141282L2.10814 4.55144C0.619016 5.31002 0.167701 7.13364 1.14446 8.43995L8.92802 18.8709C9.60172 19.7099 10.9055 19.7881 11.6839 19.0339L19.7138 10.4592C20.176 9.96579 20.1847 9.22678 19.7356 8.72251L12.3053 0.419498C12.0589 0.145629 11.7057 0 11.3481 0C11.1454 0 10.9404 0.0456448 10.7529 0.141282Z" fill="#FF3477"/>
  <path d="M6.1329 0.995229L0.507805 8.62009C-0.460234 9.93292 0.00198263 11.7522 1.49329 12.5043L13.3976 18.5011C14.3983 18.9641 15.5974 18.4772 15.9354 17.473L19.0357 6.39001C19.2145 5.75316 18.87 5.08805 18.229 4.83157L7.65037 0.582252C7.49121 0.519219 7.32551 0.488789 7.16199 0.488789C6.763 0.486615 6.37491 0.669195 6.1329 0.995229Z" fill="#00C3D2"/>
  <path d="M8.90403 1.08447L4.35599 3.40584L0.915527 8.06813C0.980935 8.19637 1.05506 8.32027 1.14446 8.44199L5.79061 14.6693L12.5734 18.0839L17.1258 13.2238L18.7065 7.57474L15.1418 3.59059L8.90403 1.08447Z" fill="#210049"/>
  </g>
  <defs>
  <clipPath id="clip0">
  <rect width="88" height="19.5556" fill="white"/>
  </clipPath>
  </defs>
</svg>
