<svg width="48" height="48" viewBox="0 0 48 48" fill="none" xmlns="http://www.w3.org/2000/svg">
<g clip-path="url(#clip0_369:2927)">
<path fill-rule="evenodd" clip-rule="evenodd" d="M12.6879 13.2765C12.4981 13.2765 12.3413 13.4334 12.3413 13.6232V24.5913C12.3413 24.7811 12.4981 24.938 12.6879 24.938H26.5546C26.7444 24.938 26.9013 24.7811 26.9013 24.5913V13.6232C26.9013 13.4334 26.7444 13.2765 26.5546 13.2765H12.6879ZM28.3413 20.2593V13.6232C28.3413 12.6381 27.5397 11.8365 26.5546 11.8365H12.6879C11.7028 11.8365 10.9013 12.6381 10.9013 13.6232V24.5913C10.9013 24.615 10.9017 24.6387 10.9026 24.6622C10.9017 24.6771 10.9013 24.6921 10.9013 24.7072V30.8058C10.9013 31.7909 11.7028 32.5925 12.6879 32.5925H13.2986C13.6208 32.5925 13.9038 32.3784 13.9914 32.0683C14.4085 30.5925 15.7702 29.5084 17.3797 29.5084C18.9892 29.5084 20.3509 30.5925 20.768 32.0683C20.8556 32.3784 21.1386 32.5925 21.4609 32.5925H26.5391C26.8614 32.5925 27.1444 32.3784 27.232 32.0683C27.6491 30.5925 29.0108 29.5084 30.6203 29.5084C32.2298 29.5084 33.5915 30.5925 34.0086 32.0683C34.0962 32.3784 34.3792 32.5925 34.7015 32.5925H35.3044C36.2894 32.5925 37.091 31.7909 37.091 30.8058V27.6908C37.091 26.5102 36.6948 25.2979 36.0143 24.3434L34.0259 21.5813C33.7692 21.2254 33.3296 20.8945 32.9186 20.6621C32.5182 20.4357 31.9809 20.2089 31.492 20.2153L28.3413 20.2593ZM28.3413 21.6994V24.7072C28.3413 25.6923 27.5397 26.4939 26.5546 26.4939H12.6879C12.5694 26.4939 12.4534 26.4823 12.3413 26.4601V30.8058C12.3413 30.9956 12.4981 31.1525 12.6879 31.1525H12.7864C13.5259 29.3451 15.3045 28.0684 17.3797 28.0684C19.4549 28.0684 21.2336 29.3451 21.9731 31.1525H26.0269C26.7664 29.3451 28.5451 28.0684 30.6203 28.0684C32.6955 28.0684 34.4741 29.3451 35.2136 31.1525H35.3044C35.4941 31.1525 35.651 30.9956 35.651 30.8058V27.6908C35.651 26.8159 35.3519 25.8954 34.8427 25.1806C34.8424 25.1802 34.8421 25.1797 34.8418 25.1793L32.8576 22.4231C32.8575 22.423 32.8577 22.4232 32.8576 22.4231C32.774 22.3074 32.5367 22.1005 32.2099 21.9156C31.8724 21.7248 31.6098 21.654 31.5111 21.6552C31.5111 21.6552 31.5112 21.6552 31.5111 21.6552L28.3413 21.6994ZM17.3797 31.7809C16.5613 31.7809 15.9071 32.4417 15.9123 33.2437L15.9123 33.2483C15.9123 34.0581 16.5655 34.7157 17.3797 34.7157C18.1895 34.7157 18.8472 34.0625 18.8472 33.2483C18.8472 32.4385 18.1939 31.7809 17.3797 31.7809ZM14.4723 33.2506C14.4632 31.6421 15.7719 30.3409 17.3797 30.3409C18.9925 30.3409 20.2872 31.6465 20.2872 33.2483C20.2872 34.8611 18.9815 36.1557 17.3797 36.1557C15.7677 36.1557 14.4735 34.8513 14.4723 33.2506ZM30.6203 31.7809C29.8121 31.7809 29.1529 32.4402 29.1529 33.2483C29.1529 34.0581 29.8061 34.7157 30.6203 34.7157C31.4301 34.7157 32.0877 34.0625 32.0877 33.2483C32.0877 32.4385 31.4345 31.7809 30.6203 31.7809ZM27.7129 33.2483C27.7129 31.6449 29.0169 30.3409 30.6203 30.3409C32.2331 30.3409 33.5277 31.6465 33.5277 33.2483C33.5277 34.8611 32.2221 36.1557 30.6203 36.1557C29.0075 36.1557 27.7129 34.8501 27.7129 33.2483Z" fill="#FFA361"/>
</g>
<defs>
<clipPath id="clip0_369:2927">
<rect width="25.8705" height="24" fill="white" transform="translate(11.0647 12)"/>
</clipPath>
</defs>
</svg>
