<svg width="49" height="49" viewBox="0 0 49 49" fill="none" xmlns="http://www.w3.org/2000/svg">
<path d="M29.3483 15.7311C30.2904 15.7311 31.0541 14.9674 31.0541 14.0254C31.0541 13.0833 30.2904 12.3196 29.3483 12.3196C28.4063 12.3196 27.6426 13.0833 27.6426 14.0254C27.6426 14.9674 28.4063 15.7311 29.3483 15.7311Z" fill="#B6CDE2"/>
<path d="M28.7345 25.7695L28.5384 25.6416H28.4701L27.4979 25.0702L23.4808 22.7504L17.161 33.5989L16.8711 34.0936L16.7687 34.2727V34.3239C16.6899 34.51 16.6493 34.7102 16.6493 34.9123C16.6425 35.0905 16.6708 35.2682 16.7327 35.4353C16.7946 35.6025 16.8888 35.7558 17.01 35.8865C17.1312 36.0172 17.277 36.1227 17.439 36.197C17.601 36.2713 17.7761 36.313 17.9542 36.3196C18.1603 36.3172 18.3627 36.2647 18.544 36.1666C18.7252 36.0685 18.8799 35.9279 18.9947 35.7567L19.3614 35.1341L21.0246 32.2343L27.8902 30.4006L28.129 30.3324H28.2058C28.693 30.1405 29.1097 29.8038 29.3994 29.3676C29.6892 28.9314 29.8382 28.4167 29.8262 27.8932C29.8305 27.4145 29.7068 26.9434 29.468 26.5286C29.2808 26.2259 29.0306 25.967 28.7345 25.7695V25.7695ZM25.0501 28.4817L22.8668 29.0702L24.4275 26.358L25.2292 26.8186L27.1397 27.9188L25.0501 28.4817Z" fill="#B6CDE2"/>
<path d="M17.3058 24.6342L17.519 25.2227L18.1075 25.1289H18.2696L21.1523 24.6342L19.9156 23.9178L22.2781 19.8326L25.6043 19.1247C25.8825 19.0453 26.1265 18.8758 26.2979 18.6427C26.4692 18.4095 26.5583 18.1261 26.551 17.8368C26.5625 17.4989 26.4398 17.1702 26.2096 16.9225C25.9795 16.6747 25.6607 16.5282 25.3228 16.5149C25.219 16.5153 25.1158 16.5296 25.0158 16.5575L20.5894 17.4957L17.647 22.6129L16.2909 21.8198L17.2632 24.5404L17.3058 24.6342Z" fill="#B6CDE2"/>
<path d="M16.1374 21.8293L14.2866 24.985L17.0926 24.5074L16.1374 21.8293Z" fill="#B6CDE2"/>
<path d="M19.2931 27.9616L21.1609 24.7719L18.3208 25.2495L19.2931 27.9616Z" fill="#B6CDE2"/>
<path d="M18.1672 25.2746L17.5702 25.3769L17.4167 25.4025L17.3655 25.2575L17.1523 24.6605L14.2866 25.1467L19.1309 27.9867L18.1672 25.2746Z" fill="#B6CDE2"/>
<path d="M33.485 16.1915C33.2639 16.1924 33.047 16.2521 32.8567 16.3645C32.6663 16.4769 32.5093 16.638 32.4018 16.8312C32.3655 16.894 32.3341 16.9596 32.308 17.0273V17.0273L32.1886 17.3002L31.276 19.3386H28.5895L27.2419 21.7608H32.905L34.3379 18.554L34.6619 17.829C34.6962 17.7098 34.7135 17.5863 34.7131 17.4623C34.7165 17.298 34.6874 17.1348 34.6274 16.9818C34.5674 16.8289 34.4777 16.6894 34.3636 16.5712C34.2494 16.4531 34.113 16.3588 33.9622 16.2936C33.8114 16.2284 33.6492 16.1937 33.485 16.1915V16.1915Z" fill="#B6CDE2"/>
</svg>
