<svg width="18" height="18" viewBox="0 0 18 18" fill="none" xmlns="http://www.w3.org/2000/svg">
<path d="M4.18338 1.77963C5.61338 0.829626 7.29339 0.319626 9.00339 0.319626C10.1434 0.319626 11.2734 0.539626 12.3234 0.979626C13.3734 1.41963 14.3334 2.05963 15.1434 2.85963C15.9534 3.66963 16.5934 4.61963 17.0234 5.67963C17.4634 6.72963 17.6834 7.85963 17.6834 8.99963C17.6834 10.7196 17.1734 12.3996 16.2234 13.8196C15.2734 15.2496 13.9134 16.3596 12.3234 17.0196C10.7334 17.6796 8.99339 17.8496 7.30339 17.5096C5.62339 17.1796 4.07339 16.3496 2.85338 15.1296C1.64338 13.9196 0.813385 12.3696 0.473385 10.6796C0.153385 9.00963 0.323385 7.26963 0.983385 5.67963C1.64339 4.08963 2.75339 2.73963 4.18338 1.77963Z" fill="#B6CDE2"/>
<path d="M11.6434 5.47962L7.96337 10.3496L6.37337 8.29962C6.21337 8.09962 5.97337 7.95962 5.72337 7.92962C5.46337 7.89962 5.20337 7.96962 5.00337 8.12962C4.79337 8.28962 4.66337 8.51962 4.63337 8.77962C4.60337 9.03962 4.67337 9.29963 4.83337 9.49963L7.20337 12.5296C7.29337 12.6496 7.41337 12.7396 7.54337 12.7996C7.67337 12.8596 7.82337 12.8996 7.97337 12.8996C8.12337 12.8996 8.27337 12.8596 8.40337 12.7996C8.53337 12.7296 8.65337 12.6396 8.74337 12.5196L13.1934 6.66962C13.3534 6.45962 13.4234 6.19962 13.3834 5.93962C13.3534 5.67962 13.2134 5.44962 13.0034 5.28962C12.7934 5.12962 12.5334 5.05962 12.2734 5.09962C12.0234 5.13962 11.7934 5.27962 11.6434 5.47962Z" fill="white"/>
</svg>
