<svg version="1.2" xmlns="http://www.w3.org/2000/svg" viewBox="0 0 20 20" width="20" height="20"><defs><linearGradient id="P" gradientUnits="userSpaceOnUse"/><linearGradient id="g1" x1="22.6" y1="10.4" x2="23.1" y2="10.4" href="#P"><stop stop-color="#fff"/><stop offset="1" stop-color="#1d1d1b"/></linearGradient></defs><style>tspan{white-space:pre}.a{fill:url(#g1)}.b{fill:none}.c{fill:#e76100}.d{font-size: 19px;fill: #ffffff;font-weight: 400;font-family: "LiberationSans", "Liberation Sans"}</style><path class="a" d="m8.9 14.7c0-0.6 0.5-1.1 1.1-1.1 0.6 0 1.1 0.5 1.1 1.1 0 0.6-0.4 1.1-1.1 1.1-0.7 0-1.1-0.4-1.1-1.1zm0.5-2.5l-0.3-8.7h1.7l-0.3 8.6h-1.1z"/><path class="b" d="m7.9 2.9h23.7v16.9h-23.7z"/><path class="c" d="m10 20c-5.5 0-10-4.5-10-10 0-5.5 4.5-10 10-10 5.5 0 10 4.5 10 10 0 5.5-4.5 10-10 10z"/><text style="transform:matrix(1,.005,-0.005,1,7.038,2.481)" ><tspan x="0" y="13.8" class="d">!
</tspan></text></svg>