<svg width="48" height="48" viewBox="0 0 48 48" fill="none" xmlns="http://www.w3.org/2000/svg">
<path d="M24 40C15.1796 40 8 32.8205 8 24C8 15.1746 15.1796 8 24 8C32.8205 8 40 15.1796 40 24C40 32.8205 32.8205 40 24 40ZM24 9.11857C15.7955 9.11857 9.11857 15.7955 9.11857 24.0049C9.11857 32.2094 15.7955 38.8864 24 38.8864C32.2045 38.8864 38.8814 32.2094 38.8814 24.0049C38.8814 15.7906 32.2045 9.11857 24 9.11857Z" fill="white"/>
<path d="M15.2683 30.3204C17.3083 30.488 19.1513 29.9804 20.7774 28.7288C19.984 28.6746 19.2646 28.4331 18.629 27.9552C17.9933 27.4772 17.5498 26.8612 17.2936 26.1024C17.5794 26.1122 17.8504 26.1418 18.1165 26.1319C18.3826 26.1221 18.6487 26.0777 18.9197 26.0284C17.0669 25.4519 16.0666 24.22 15.9385 22.2637C16.2341 22.3771 16.4953 22.4953 16.7663 22.5692C17.0373 22.6432 17.3182 22.6727 17.5991 22.7072C15.9385 21.3029 15.564 19.6275 16.4707 17.6318C18.5452 20.066 21.1371 21.3965 24.3056 21.6133C24.281 21.3423 24.2465 21.1008 24.2366 20.8544C24.2021 19.9478 24.4583 19.1298 25.025 18.4202C25.981 17.2277 27.2375 16.7744 28.7355 17.0158C29.3318 17.1144 29.8738 17.3657 30.3469 17.75C30.4405 17.824 30.544 17.888 30.6129 17.9767C30.7263 18.1196 30.8445 18.1344 31.0121 18.095C31.6822 17.9274 32.3327 17.7008 32.9388 17.3608C33.0078 17.3213 33.0768 17.2918 33.1753 17.2376C33.0472 17.6958 32.8255 18.0703 32.5544 18.4103C32.2883 18.7503 31.9631 19.0361 31.6034 19.2825C32.3179 19.2283 32.9881 19.0214 33.6681 18.775C33.5055 18.9869 33.3478 19.2037 33.1803 19.4057C32.8008 19.8541 32.377 20.2533 31.9089 20.613C31.8547 20.6524 31.8153 20.751 31.8153 20.8249C31.8498 21.9188 31.7118 22.9881 31.4211 24.0426C31.2141 24.7966 30.9234 25.5258 30.5637 26.2256C30.2089 26.9056 29.7999 27.5462 29.312 28.1375C28.7257 28.852 28.0654 29.4876 27.3114 30.0297C26.6363 30.5126 25.912 30.9117 25.1433 31.2222C24.3795 31.5277 23.5911 31.7297 22.7829 31.8578C21.9403 31.9909 21.0928 32.0106 20.2452 31.9564C19.3238 31.8973 18.4171 31.7297 17.5498 31.4045C16.9733 31.1877 16.4165 30.9265 15.8596 30.6703C15.6576 30.5717 15.4654 30.4387 15.2683 30.3204Z" fill="white"/>
</svg>
