<svg width="48" height="48" viewBox="0 0 48 48" fill="none" xmlns="http://www.w3.org/2000/svg">
<path d="M24.0001 40C15.1797 40 8.00012 32.8205 8.00012 24C8.00012 15.1746 15.1797 8 24.0001 8C32.8206 8 40.0001 15.1796 40.0001 24C40.0001 32.8205 32.8206 40 24.0001 40ZM24.0001 9.11857C15.7956 9.11857 9.1187 15.7955 9.1187 24.0049C9.1187 32.2094 15.7956 38.8864 24.0001 38.8864C32.2046 38.8864 38.8816 32.2094 38.8816 24.0049C38.8816 15.7906 32.2046 9.11857 24.0001 9.11857Z" fill="white"/>
<path d="M33.7716 18.4689C33.1901 17.439 32.5643 17.2469 31.2832 17.1779C30.002 17.0892 26.7891 17.0547 24.0001 17.0547C21.2111 17.0547 17.9933 17.0892 16.7122 17.1779C15.4359 17.2518 14.8052 17.439 14.2188 18.4689C13.6225 19.4988 13.317 21.2727 13.317 24.3919V24.3968V24.4018V24.4067C13.317 27.516 13.6225 29.2998 14.2188 30.3199C14.8052 31.3497 15.431 31.537 16.7122 31.6257C17.9884 31.6996 21.2061 31.7439 24.0001 31.7439C26.7842 31.7439 30.002 31.6996 31.2832 31.6257C32.5643 31.537 33.1901 31.3497 33.7716 30.3199C34.3728 29.2998 34.6783 27.516 34.6783 24.4067V24.4018V24.3968C34.6783 21.2678 34.3777 19.4988 33.7716 18.4689ZM27.4642 24.8945L22.0143 28.1615C21.625 28.3931 21.1372 28.1172 21.1372 27.6639V21.1249C21.1372 20.6715 21.6299 20.3956 22.0143 20.6272L27.4642 23.8942C27.8387 24.1209 27.8387 24.6679 27.4642 24.8945Z" fill="white"/>
</svg>
